<svg width="204" height="179" viewBox="0 0 204 179" fill="none" xmlns="http://www.w3.org/2000/svg">
<path d="M141.081 1.64898C148.456 -2.12362 157.493 0.796316 161.266 8.17144L170.671 26.5562C163.818 30.87 159.25 38.6025 159.25 47.4244C159.25 60.9553 169.995 71.9243 183.25 71.9244C186.659 71.9243 189.902 71.1965 192.839 69.8882L202.215 88.2183C205.988 95.5933 203.067 104.631 195.692 108.404L62.7838 176.395C55.4088 180.168 46.3714 177.247 42.5983 169.873L32.6413 150.409C39.5977 146.118 44.2497 138.326 44.2497 129.424C44.2494 115.894 33.5041 104.925 20.2497 104.924C16.7628 104.924 13.4492 105.684 10.4596 107.049L1.64907 89.8257C-2.12378 82.4506 0.796513 73.4132 8.17153 69.6402L141.081 1.64898ZM152.141 102.836C150.999 100.676 148.321 99.8512 146.161 100.994C144.001 102.136 143.175 104.814 144.318 106.974L147.127 112.285C148.269 114.445 150.947 115.27 153.107 114.127C155.267 112.985 156.092 110.307 154.95 108.147L152.141 102.836ZM140.141 78.8365C138.999 76.6763 136.321 75.8512 134.161 76.9937C132.001 78.1363 131.175 80.814 132.318 82.9742L135.127 88.2847C136.269 90.4448 138.947 91.2698 141.107 90.1275C143.267 88.9849 144.092 86.3072 142.95 84.147L140.141 78.8365ZM128.141 55.8365C126.999 53.6763 124.321 52.8512 122.161 53.9937C120.001 55.1363 119.175 57.814 120.318 59.9742L123.127 65.2847C124.269 67.4448 126.947 68.2698 129.107 67.1275C131.267 65.9849 132.092 63.3072 130.95 61.147L128.141 55.8365ZM117.141 34.3736C115.999 32.2135 113.321 31.3893 111.161 32.5318C109.001 33.6743 108.176 36.3512 109.318 38.5113L112.127 43.8228C113.269 45.9829 115.947 46.8071 118.107 45.6646C120.267 44.5221 121.092 41.8453 119.95 39.6851L117.141 34.3736Z" fill="#161919"/>
</svg>
