<svg width="109" height="95" viewBox="0 0 109 95" fill="none" xmlns="http://www.w3.org/2000/svg">
<path d="M74.0458 0.989357C78.471 -1.27438 83.8934 0.478268 86.1572 4.90342L90.7216 13.8263C87.0653 16.1281 84.6279 20.2539 84.6279 24.961C84.628 32.1807 90.3612 38.0332 97.4335 38.0333C99.2527 38.0333 100.983 37.6445 102.55 36.9464L107.1 45.8399C109.363 50.2651 107.611 55.6875 103.185 57.9513L34.0429 93.3224C29.6179 95.5859 24.1954 93.8341 21.9316 89.4093L17.0722 79.9112C20.7843 77.6221 23.2665 73.4641 23.2666 68.714C23.2664 61.4943 17.5332 55.6418 10.4609 55.6417C8.60022 55.6417 6.83155 56.046 5.23628 56.7745L0.989207 48.4718C-1.27429 44.0467 0.478337 38.6242 4.90327 36.3605L74.0458 0.989357ZM80.8349 54.5265C80.2252 53.3741 78.797 52.9345 77.6445 53.544C76.4919 54.1537 76.0515 55.5818 76.6611 56.7345L78.1601 59.5685C78.7698 60.7208 80.198 61.1613 81.3505 60.5519C82.5032 59.9422 82.9436 58.5131 82.3339 57.3605L80.8349 54.5265ZM74.4326 41.7208C73.8229 40.5682 72.3938 40.1279 71.2412 40.7374C70.0885 41.347 69.6482 42.7762 70.2578 43.9288L71.7568 46.7628C72.3665 47.9153 73.7956 48.3548 74.9482 47.7452C76.1004 47.1354 76.5402 45.7072 75.9306 44.5548L74.4326 41.7208ZM68.0292 29.4483C67.4195 28.2961 65.9913 27.8565 64.8388 28.4659C63.6862 29.0756 63.2458 30.5037 63.8554 31.6563L65.3535 34.4903C65.9631 35.6429 67.3923 36.0833 68.5449 35.4737C69.6975 34.8641 70.1379 33.435 69.5283 32.2823L68.0292 29.4483ZM62.1601 17.9972C61.5505 16.8445 60.1213 16.4041 58.9687 17.0138C57.8162 17.6235 57.3767 19.0526 57.9863 20.2052L59.4843 23.0382C60.094 24.1908 61.5231 24.6312 62.6757 24.0216C63.828 23.4119 64.2684 21.9836 63.6591 20.8312L62.1601 17.9972Z" fill="#F9F9F9"/>
</svg>
